<?xml version="1.0" encoding="UTF-8"?>
<!-- Generator: visioncortex VTracer -->
<svg id="svg" version="1.1" xmlns="http://www.w3.org/2000/svg" style="display: block;" viewBox="0 0 1024 1024"><path d="M0 0 C0 1024 0 1024 -1024 1024 C-1024 0 -1024 0 0 0 Z " transform="translate(1024,0)" style="fill: #121319;"/><path d="M0 0 C1.75119141 -0.020625 3.50238281 -0.04125 5.30664062 -0.0625 C115.6564929 -0.38885816 208.46010299 95.47426431 209.25 204.875 C208.56688328 259.96635394 189.27257606 314.38025981 149.0625 353.25 C146.19774622 356.11475378 143.35157221 358.9990132 140.5625 361.9375 C71.65421556 427.97460592 -30.83988534 426.19311926 -109.9375 382.25 C-111.484375 384.23 -113.03125 386.21 -114.625 388.25 C-118.84606456 393.62521956 -123.11839465 398.95327679 -127.4375 404.25 C-131.48673374 409.21604138 -135.47798505 414.21061733 -139.4375 419.25 C-145.51817108 426.98903592 -151.71604336 434.62416777 -157.9375 442.25 C-166.65325575 452.92760934 -166.65325575 452.92760934 -175.1875 463.75 C-193.70260332 485.96812399 -221.49998083 488.68081931 -243.9375 470.25 C-264.71825037 447.16027737 -256.45134083 420.76316566 -235.9375 401.25 C-233.27922365 398.90711237 -230.61135558 396.57509181 -227.9375 394.25 C-224.20340163 390.77342566 -220.46989387 387.29619644 -216.74609375 383.80859375 C-211.51138027 378.91749223 -206.22562932 374.08323648 -200.9375 369.25 C-194.76109808 363.59371614 -188.59152227 357.93063594 -182.4375 352.25 C-176.2835002 346.5693848 -170.11426933 340.90583697 -163.9375 335.25 C-165.77411521 330.04482004 -165.77411521 330.04482004 -169.5 325.4375 C-237.27609899 230.93279859 -207.67696444 103.30459833 -118.1875 36.1875 C-82.54492905 11.91368013 -42.88337982 0.12380622 0 0 Z " transform="translate(513.9375,272.75)" style="fill: #DEDEDF;"/><path d="M0 0 C1.75119141 -0.020625 3.50238281 -0.04125 5.30664062 -0.0625 C115.6564929 -0.38885816 208.46010299 95.47426431 209.25 204.875 C208.56688328 259.96635394 189.27257606 314.38025981 149.0625 353.25 C146.19774622 356.11475378 143.35157221 358.9990132 140.5625 361.9375 C71.65421556 427.97460592 -30.83988534 426.19311926 -109.9375 382.25 C-111.484375 384.23 -113.03125 386.21 -114.625 388.25 C-118.84606456 393.62521956 -123.11839465 398.95327679 -127.4375 404.25 C-131.48673374 409.21604138 -135.47798505 414.21061733 -139.4375 419.25 C-145.51817108 426.98903592 -151.71604336 434.62416777 -157.9375 442.25 C-166.65325575 452.92760934 -166.65325575 452.92760934 -175.1875 463.75 C-193.70260332 485.96812399 -221.49998083 488.68081931 -243.9375 470.25 C-264.71825037 447.16027737 -256.45134083 420.76316566 -235.9375 401.25 C-233.27922365 398.90711237 -230.61135558 396.57509181 -227.9375 394.25 C-224.20340163 390.77342566 -220.46989387 387.29619644 -216.74609375 383.80859375 C-211.51138027 378.91749223 -206.22562932 374.08323648 -200.9375 369.25 C-194.76109808 363.59371614 -188.59152227 357.93063594 -182.4375 352.25 C-176.2835002 346.5693848 -170.11426933 340.90583697 -163.9375 335.25 C-165.77411521 330.04482004 -165.77411521 330.04482004 -169.5 325.4375 C-237.27609899 230.93279859 -207.67696444 103.30459833 -118.1875 36.1875 C-82.54492905 11.91368013 -42.88337982 0.12380622 0 0 Z M-164.25 207.0625 C-160.60580624 302.54037652 -84.62298608 373.76638359 11.0625 371.25 C102.40253013 363.43802374 170.31221592 288.54851773 166.0625 196.25 C162.52638937 156.96602099 147.22906507 121.94707578 120.0625 93.25 C118.391875 91.47625 116.72125 89.7025 115 87.875 C9.38316255 -12.18305654 -158.64372291 66.90557265 -164.25 207.0625 Z " transform="translate(513.9375,272.75)" style="fill: #DEDFDF;"/><path d="M0 0 C3.9513693 48.63223758 -11.80505125 94.70958131 -45.59375 130 C-47.429375 131.959375 -49.265 133.91875 -51.15625 135.9375 C-113.57933439 194.72428821 -214.04253007 194.32478615 -276.59375 136 C-277.8725 134.948125 -279.15125 133.89625 -280.46875 132.8125 C-345.47939862 72.72690052 -343.40077926 -31.63722503 -286.78125 -95.5625 C-189.17365075 -197.87407994 -16.59857215 -139.77744966 0 0 Z M-274.77075195 -51.73168945 C-274.78358719 -48.47433426 -274.79642242 -45.21697906 -274.80964661 -41.86091614 C-274.81781309 -38.27837271 -274.825257 -34.69582758 -274.83203125 -31.11328125 C-274.83610678 -29.31667746 -274.8401823 -27.52007366 -274.84438133 -25.66902733 C-274.86525469 -16.16094451 -274.87955124 -6.65287618 -274.88891602 2.85522461 C-274.89998586 12.68676879 -274.93438963 22.51808697 -274.97408772 32.3495512 C-275.00020535 39.89968798 -275.00860356 47.44977052 -275.01219749 54.9999485 C-275.01707558 58.62455586 -275.02872398 62.24916061 -275.04723549 65.87372398 C-275.07152181 70.94399973 -275.06825265 76.01438491 -275.0637207 81.0847168 C-275.06958694 83.97134567 -275.07545319 86.85797455 -275.08149719 89.83207703 C-273.72076971 109.82930089 -259.96672272 113.18484374 -242.89453125 113.58984375 C-239.82350098 113.66315918 -236.7524707 113.73647461 -233.58837891 113.81201172 C-216.31981218 114.13681499 -199.05179345 114.37948625 -181.78125 114.5625 C-179.90128326 114.58268188 -178.02131653 114.60286377 -176.0843811 114.62365723 C-164.69452455 114.74396603 -153.30460362 114.85322685 -141.91455078 114.95318604 C-136.87531024 114.99752275 -131.83609172 115.04434221 -126.796875 115.09130859 C-118.29164282 115.16313096 -109.7866925 115.21208181 -101.28125 115.25 C-98.79424561 115.2713501 -96.30724121 115.2927002 -93.74487305 115.31469727 C-91.47136963 115.31912842 -89.19786621 115.32355957 -86.85546875 115.328125 C-84.90600342 115.3374707 -82.95653809 115.34681641 -80.94799805 115.35644531 C-59.65754284 113.93908794 -54.0982653 100.96051795 -54.07617188 81.08227539 C-54.05725891 76.20660545 -54.05725891 76.20660545 -54.03796387 71.23243713 C-54.04512387 67.68750797 -54.05332789 64.14258078 -54.0625 60.59765625 C-54.05980481 56.95755408 -54.05592217 53.31745261 -54.05090332 49.67735291 C-54.04500894 42.05216612 -54.05356957 34.42716691 -54.07226562 26.80200195 C-54.09504608 17.03579545 -54.08193606 7.27002888 -54.05797577 -2.49616146 C-54.04350982 -10.01208297 -54.0481278 -17.52790048 -54.05848694 -25.04382515 C-54.06115239 -28.64443578 -54.05789091 -32.24505589 -54.04856873 -35.84565544 C-54.03839247 -40.88139537 -54.05665702 -45.91716846 -54.07617188 -50.95288086 C-54.07935425 -53.81697128 -54.08253662 -56.68106171 -54.08581543 -59.63194275 C-55.67960339 -82.75130022 -69.03309664 -86.24090386 -89.9309082 -86.29052734 C-91.70223114 -86.29724457 -93.47355408 -86.30396179 -95.29855347 -86.31088257 C-101.1639078 -86.32990662 -107.02914797 -86.33378902 -112.89453125 -86.3359375 C-116.9673009 -86.34236219 -121.04007008 -86.3490903 -125.11283875 -86.35610962 C-133.65458242 -86.36809333 -142.19628562 -86.37178929 -150.73803711 -86.37060547 C-161.68704139 -86.37040219 -172.63578638 -86.39770988 -183.58472919 -86.43214989 C-191.99789117 -86.45437881 -200.41099035 -86.45844423 -208.8241787 -86.45738602 C-212.86103395 -86.45974779 -216.89789079 -86.46860351 -220.93471718 -86.48405075 C-226.57946602 -86.50362847 -232.22365042 -86.49790314 -237.8684082 -86.48583984 C-241.08130081 -86.48868988 -244.29419342 -86.49153992 -247.60444641 -86.49447632 C-270.47842316 -85.07875345 -274.70299941 -71.57147037 -274.77075195 -51.73168945 Z " transform="translate(679.59375,464)" style="fill: #121319;"/><path d="M0 0 C1.62592575 -0.00350464 3.2518515 -0.00700928 4.92704773 -0.01062012 C10.32836108 -0.01945855 15.72954458 -0.01358069 21.13085938 -0.00683594 C24.86739121 -0.00818198 28.60392287 -0.01012199 32.3404541 -0.01263428 C40.1822272 -0.01558841 48.02395483 -0.01127855 55.86572266 -0.00195312 C65.9410794 0.00944146 76.0163296 0.00288354 86.09168243 -0.00909805 C93.81057546 -0.0163088 101.52944302 -0.01403233 109.24833679 -0.00884247 C112.96441154 -0.0075038 116.68048857 -0.00916122 120.39656067 -0.01380157 C125.58084273 -0.01885386 130.76494979 -0.01117455 135.94921875 0 C138.90548218 0.00159119 141.86174561 0.00318237 144.90759277 0.00482178 C155.66786131 0.42095537 153.72171325 3.9192027 153.70166016 13.68505859 C153.70143356 17.34862961 153.70143356 17.34862961 153.70120239 21.08621216 C153.69087982 23.74449066 153.68055725 26.40276917 153.66992188 29.14160156 C153.66709198 31.84668915 153.66426208 34.55177673 153.66134644 37.33883667 C153.65010741 46.02053155 153.62499576 54.7021251 153.59960938 63.38378906 C153.5895844 69.25227716 153.58045772 75.12076687 153.57226562 80.98925781 C153.55015586 95.41246976 153.51664164 109.83562217 153.47460938 124.25878906 C145.97912473 118.63717558 139.3488081 112.60923932 132.47460938 106.25878906 C122.48059637 97.31677743 115.61547845 96.97197715 106.09960938 106.69628906 C98.66289389 114.19602756 98.66289389 114.19602756 95.47460938 115.25878906 C94.60835937 114.24816406 93.74210938 113.23753906 92.84960938 112.19628906 C89.11817123 107.98509459 85.32135851 103.86390195 81.47460938 99.75878906 C76.70720559 94.67088754 72.06590906 89.50598871 67.47460938 84.25878906 C63.92775515 80.44169833 60.36395541 76.6408444 56.79882812 72.84082031 C54.24460215 70.08849926 51.75191139 67.27897198 49.28710938 64.44628906 C43.49632885 57.88340447 39.51143947 57.62932499 32.47460938 63.25878906 C31.11335938 64.92941406 29.75210938 66.60003906 28.34960938 68.32128906 C23.38140014 74.37231314 18.03969179 79.75841691 12.47460938 85.25878906 C10.13837572 87.92291516 7.80494161 90.58949941 5.47460938 93.25878906 C2.14127604 96.5921224 -1.19205729 99.92545573 -4.52539062 103.25878906 C-6.38164062 105.39347656 -6.38164062 105.39347656 -8.27539062 107.57128906 C-11.52539062 111.25878906 -11.52539062 111.25878906 -17.52539062 116.25878906 C-17.57592031 100.06007208 -17.61105206 83.86137526 -17.63525391 67.66259766 C-17.64533852 62.14696493 -17.65900575 56.63133758 -17.67626953 51.11572266 C-17.70040976 43.20766882 -17.71184897 35.29968539 -17.72070312 27.39160156 C-17.7310257 24.90831329 -17.74134827 22.42502502 -17.75198364 19.8664856 C-17.7521347 17.58427094 -17.75228577 15.30205627 -17.75244141 12.95068359 C-17.75688263 10.92992706 -17.76132385 8.90917053 -17.76589966 6.82717896 C-17.23311616 -3.29286824 -8.28755 0.00446071 0 0 Z " transform="translate(447.525390625,402.7412109375)" style="fill: #121319;"/><path d="M0 0 C0 14.99391746 -5.99596759 25.35457855 -21.8125 26.375 C-35.81340517 25.52646029 -42.50901952 17.62823642 -43.5 4.25 C-41.6415048 -22.69818039 -9.60300793 -24.00751983 0 0 Z " transform="translate(579,444)" style="fill: #DEDFDF;"/></svg>