<svg width="500" height="500" viewBox="0 0 500 500" fill="none" xmlns="http://www.w3.org/2000/svg">
<path d="M279.02 2.06507C280.819 2.04388 282.618 2.02269 284.472 2.00085C397.843 1.66556 493.188 100.154 494 212.551C493.298 269.151 473.475 325.055 432.164 364.989C429.221 367.932 426.297 370.896 423.431 373.914C352.636 441.76 247.335 439.93 166.071 394.783C164.482 396.817 162.893 398.852 161.255 400.948C156.919 406.47 152.529 411.944 148.092 417.386C143.932 422.488 139.831 427.619 135.763 432.797C129.516 440.747 123.149 448.592 116.757 456.426C107.802 467.396 107.802 467.396 99.0344 478.515C80.0123 501.342 51.4536 504.129 28.4016 485.193C7.05179 461.471 15.5451 434.351 36.6207 414.304C39.3518 411.897 42.0927 409.501 44.8398 407.112C48.6762 403.54 52.5119 399.968 56.3377 396.385C61.7158 391.359 67.1463 386.393 72.5792 381.427C78.9248 375.616 85.2633 369.798 91.5859 363.962C97.9084 358.125 104.247 352.307 110.592 346.496C108.706 341.148 108.706 341.148 104.878 336.415C35.2455 239.322 65.6552 108.199 157.595 39.2436C194.214 14.305 234.962 2.19226 279.02 2.06507Z" fill="#DEDEDF"/>
<path d="M452.091 194.795C456.089 245.87 439.674 294.224 404.599 331.215C402.693 333.269 400.787 335.323 398.824 337.439C334.037 399.048 229.957 398.432 165.269 337.065C163.947 335.958 162.624 334.851 161.261 333.71C94.0286 270.489 96.3886 160.904 155.173 93.8883C256.498 -13.3554 435.172 47.987 452.091 194.795ZM167.529 139.937C167.51 143.358 167.49 146.778 167.47 150.302C167.454 154.064 167.439 157.826 167.425 161.588C167.417 163.474 167.41 165.361 167.402 167.305C167.361 177.289 167.328 187.273 167.299 197.257C167.268 207.581 167.213 217.904 167.152 228.228C167.11 236.156 167.087 244.084 167.068 252.012C167.056 255.818 167.037 259.624 167.01 263.43C166.975 268.755 166.968 274.079 166.963 279.403C166.951 282.434 166.94 285.465 166.927 288.588C168.298 309.589 182.54 313.14 200.226 313.598C203.408 313.681 206.589 313.764 209.867 313.85C227.757 314.225 245.646 314.513 263.538 314.739C265.486 314.764 267.433 314.789 269.44 314.814C281.24 314.963 293.039 315.1 304.839 315.227C310.06 315.284 315.281 315.343 320.501 315.402C329.312 315.494 338.124 315.562 346.935 315.618C349.512 315.645 352.088 315.673 354.743 315.701C357.098 315.71 359.453 315.719 361.88 315.728C363.9 315.742 365.919 315.756 368 315.77C390.06 314.323 395.845 300.705 395.908 279.832C395.937 274.712 395.937 274.712 395.967 269.489C395.966 265.766 395.965 262.044 395.962 258.322C395.972 254.499 395.983 250.677 395.996 246.855C396.017 238.848 396.023 230.841 396.019 222.834C396.015 212.579 396.048 202.324 396.092 192.069C396.122 184.177 396.132 176.284 396.136 168.392C396.14 164.611 396.151 160.83 396.167 157.049C396.188 151.762 396.179 146.474 396.169 141.186C396.171 138.178 396.174 135.171 396.176 132.072C394.571 107.792 380.743 104.102 359.093 104.009C357.258 103.998 355.423 103.988 353.532 103.977C347.456 103.946 341.379 103.93 335.303 103.916C331.083 103.902 326.864 103.887 322.644 103.871C313.795 103.842 304.946 103.821 296.097 103.806C284.753 103.785 273.41 103.735 262.067 103.677C253.351 103.638 244.635 103.617 235.919 103.601C231.737 103.591 227.555 103.574 223.373 103.55C217.525 103.518 211.677 103.513 205.829 103.515C202.501 103.506 199.172 103.496 195.743 103.487C172.042 104.929 167.639 119.104 167.529 139.937Z" fill="#121319"/>
<path d="M279.02 2.06507C280.819 2.04388 282.618 2.02269 284.472 2.00085C397.843 1.66556 493.188 100.154 494 212.551C493.298 269.151 473.475 325.055 432.164 364.989C429.221 367.932 426.297 370.896 423.431 373.914C352.636 441.76 247.335 439.93 166.071 394.783C164.482 396.817 162.893 398.852 161.255 400.948C156.919 406.47 152.529 411.944 148.092 417.386C143.932 422.488 139.831 427.619 135.763 432.797C129.516 440.747 123.149 448.592 116.757 456.426C107.802 467.396 107.802 467.396 99.0344 478.515C80.0123 501.342 51.4536 504.129 28.4016 485.193C7.05179 461.471 15.5451 434.351 36.6207 414.304C39.3518 411.897 42.0927 409.501 44.8398 407.112C48.6762 403.54 52.5119 399.968 56.3377 396.385C61.7158 391.359 67.1463 386.393 72.5792 381.427C78.9248 375.616 85.2633 369.798 91.5859 363.962C97.9084 358.125 104.247 352.307 110.592 346.496C108.706 341.148 108.706 341.148 104.878 336.415C35.2455 239.322 65.6552 108.199 157.595 39.2436C194.214 14.305 234.962 2.19226 279.02 2.06507ZM110.271 214.798C114.015 312.891 192.079 386.067 290.385 383.482C384.226 375.456 453.996 298.516 449.63 203.69C445.997 163.33 430.281 127.352 402.37 97.8688C400.654 96.0465 398.937 94.2241 397.169 92.3466C288.66 -10.4516 116.031 70.8029 110.271 214.798Z" fill="#DEDFDF"/>
<path d="M210.788 135.617C212.459 135.613 214.129 135.609 215.85 135.606C221.399 135.597 226.948 135.603 232.498 135.61C236.336 135.608 240.175 135.606 244.014 135.604C252.071 135.601 260.127 135.605 268.184 135.615C278.535 135.626 288.886 135.62 299.237 135.607C307.168 135.6 315.098 135.602 323.028 135.607C326.846 135.609 330.664 135.607 334.482 135.602C339.808 135.597 345.134 135.605 350.46 135.617C353.498 135.618 356.535 135.62 359.664 135.621C370.719 136.049 368.72 139.643 368.699 149.676C368.699 153.44 368.699 153.44 368.698 157.28C368.688 160.011 368.677 162.742 368.666 165.556C368.663 168.335 368.661 171.115 368.658 173.978C368.646 182.897 368.62 191.817 368.594 200.736C368.584 206.765 368.574 212.795 368.566 218.824C368.543 233.642 368.509 248.46 368.466 263.278C360.765 257.503 353.953 251.31 346.891 244.785C336.623 235.598 329.57 235.244 319.793 245.235C312.153 252.94 312.153 252.94 308.877 254.032C307.987 252.993 307.097 251.955 306.18 250.885C302.347 246.559 298.446 242.325 294.494 238.107C289.596 232.88 284.828 227.574 280.111 222.183C276.467 218.261 272.805 214.356 269.142 210.452C266.518 207.624 263.957 204.738 261.425 201.828C255.476 195.085 251.382 194.824 244.152 200.608C242.753 202.324 241.355 204.04 239.914 205.809C234.81 212.026 229.322 217.559 223.604 223.21C221.204 225.947 218.807 228.687 216.413 231.429C212.988 234.854 209.563 238.279 206.139 241.703C204.232 243.896 204.232 243.896 202.286 246.134C198.947 249.922 198.947 249.922 192.783 255.059C192.731 238.417 192.695 221.775 192.67 205.132C192.66 199.465 192.645 193.799 192.628 188.132C192.603 180.007 192.591 171.883 192.582 163.758C192.571 161.207 192.561 158.656 192.55 156.027C192.55 153.682 192.55 151.338 192.549 148.922C192.545 146.846 192.54 144.77 192.536 142.631C193.083 132.233 202.274 135.621 210.788 135.617Z" fill="#121319"/>
<path d="M345.864 178.005C345.864 193.41 339.704 204.054 323.454 205.103C309.07 204.231 302.191 196.116 301.173 182.372C303.082 154.686 335.998 153.34 345.864 178.005Z" fill="#DEDFDF"/>
</svg>
